<svg width="20" height="16" viewBox="0 0 20 16" fill="none" xmlns="http://www.w3.org/2000/svg">
<path d="M1 12C1.34653 13.3333 1.901 14.5263 2.24754 15.1579C2.52476 15.5789 2.94059 15.9298 3.42574 16C3.49505 16 3.56437 16 3.63367 16C4.04952 16 4.46534 15.8596 4.81188 15.5088L8 12.0702H1.41585C1.27723 12.0702 1.13861 12.0702 1 12Z" fill="white"/>
<path d="M17.1188 16C17.1683 16 17.2178 16 17.2673 16C17.6139 15.9298 17.9604 15.6491 18.1089 15.1579C18.4059 14.4561 18.7525 13.3333 19 12C18.901 12.0702 18.802 12.0702 18.703 12.0702H14L16.2772 15.5088C16.5248 15.8596 16.8218 16 17.1188 16Z" fill="white"/>
<path d="M0.31496 10.5714C0.629921 10.8775 0.944881 11 1.25984 11H8L1.95276 5.24489C1.88977 5.18367 1.82678 5.06122 1.70079 5C0.755912 6.34694 0.125984 7.93876 0 9.65305C0 10.0204 0.125984 10.3265 0.31496 10.5714Z" fill="white"/>
<path d="M18.3364 5C18.273 5.06061 18.2097 5.18181 18.1463 5.24242L12 11H18.7799C19.1601 11 19.4769 10.8788 19.667 10.6364C19.9205 10.3939 20.0472 10.0303 19.9839 9.72727C19.9205 7.96969 19.2868 6.39394 18.3364 5Z" fill="white"/>
<path d="M19 3.23888C18.9303 2.8111 18.7213 2.38333 18.3033 2.13889C16.2131 0.733333 13.4959 0 10.5 0C7.5041 0 4.78688 0.733333 2.69672 2.13889C2.27869 2.38333 2.06967 2.81112 2 3.17779C2 3.66667 2.13935 4.03334 2.48771 4.33889L10.0123 10.8167C10.1516 10.9389 10.291 11 10.5 11C10.709 11 10.8484 10.9389 10.9877 10.8167L18.5123 4.33889C18.8606 4.03334 19 3.66666 19 3.23888Z" fill="white"/>
</svg>
