<svg width="331" height="74" viewBox="0 0 331 74" fill="none" xmlns="http://www.w3.org/2000/svg">
<path d="M6.38419 29.3786H0V21.374H6.38419V16.9459C6.38419 11.5811 7.66103 7.40852 10.2998 4.42808C12.9386 1.44764 16.5989 0 21.3657 0C22.7277 0 24.1748 0.170311 25.707 0.425777C27.2392 0.681243 28.516 1.10702 29.5375 1.5328L28.516 9.45224C26.5582 8.771 24.6855 8.43038 22.898 8.43038C20.5996 8.43038 18.8972 9.19678 17.7906 10.7296C16.684 12.2624 16.1733 14.6467 16.1733 17.7975V21.374H25.707V29.3786H16.0882V56.8838H6.38419V29.3786Z" fill="#3BEAAB"/>
<path d="M69.7153 49.9862L87.8464 29.3786H70.4814V21.374H100.53V28.2716L82.3135 48.8792H101.04V56.8838H69.7153V49.9862Z" fill="#3BEAAB"/>
<path d="M106.063 49.9862L124.279 29.3786H106.914V21.374H136.962V28.2716L118.746 48.8792H137.473V56.8838H106.148V49.9862H106.063Z" fill="#3BEAAB"/>
<path d="M156.115 54.4994L141.303 21.374H151.859L161.052 44.1956L169.819 21.374H180.204L156.711 74H146.666L156.115 54.4994Z" fill="#3BEAAB"/>
<path d="M190.079 29.3786H183.694V21.374H190.079V16.9459C190.079 11.5811 191.355 7.40852 193.994 4.42808C196.633 1.44764 200.293 0 205.145 0C206.507 0 207.954 0.170311 209.486 0.425777C211.019 0.681243 212.296 1.10702 213.317 1.5328L212.295 9.45224C210.338 8.771 208.465 8.43038 206.677 8.43038C204.379 8.43038 202.677 9.19678 201.57 10.7296C200.463 12.2624 199.953 14.6467 199.953 17.7975V21.374H209.401V29.3786H199.868V56.8838H190.164V29.3786H190.079Z" fill="#3BEAAB"/>
<path d="M231.959 57.9908C228.469 57.9908 225.234 57.2244 222.34 55.6065C219.446 53.9885 217.148 51.7745 215.36 48.8792C213.657 45.9839 212.806 42.748 212.806 39.0012C212.806 35.5949 213.572 32.4442 215.19 29.6341C216.807 26.7388 219.105 24.4396 221.999 22.7365C224.894 21.0334 228.213 20.1818 231.874 20.1818C235.364 20.1818 238.598 20.9482 241.493 22.481C244.387 24.0138 246.685 26.2279 248.473 29.1231C250.175 32.0184 251.026 35.2543 251.026 39.0012C251.026 42.4074 250.26 45.5581 248.643 48.4534C247.026 51.3487 244.727 53.6479 241.833 55.351C238.939 57.1392 235.619 57.9908 231.959 57.9908ZM231.959 49.3901C234.683 49.3901 236.981 48.4534 238.769 46.4948C240.556 44.6214 241.407 42.1519 241.407 39.0863C241.407 36.1059 240.556 33.6364 238.769 31.763C237.066 29.8895 234.768 28.8677 231.959 28.8677C229.15 28.8677 226.937 29.8044 225.149 31.763C223.361 33.6364 222.51 36.1059 222.51 39.0863C222.51 42.1519 223.361 44.6214 225.149 46.4948C226.937 48.4534 229.235 49.3901 231.959 49.3901Z" fill="#3BEAAB"/>
<path d="M275.201 57.9908C271.711 57.9908 268.476 57.2244 265.582 55.6065C262.688 53.9885 260.39 51.7745 258.602 48.8792C256.9 45.9839 256.048 42.748 256.048 39.0012C256.048 35.5949 256.815 32.4442 258.432 29.6341C260.049 26.7388 262.348 24.4396 265.242 22.7365C268.136 21.0334 271.456 20.1818 275.116 20.1818C278.606 20.1818 281.841 20.9482 284.735 22.481C287.629 24.0138 289.927 26.2279 291.715 29.1231C293.417 32.0184 294.269 35.2543 294.269 39.0012C294.269 42.4074 293.502 45.5581 291.885 48.4534C290.268 51.3487 287.969 53.6479 285.075 55.351C282.181 57.1392 278.861 57.9908 275.201 57.9908ZM275.201 49.3901C277.925 49.3901 280.223 48.4534 282.011 46.4948C283.798 44.6214 284.65 42.1519 284.65 39.0863C284.65 36.1059 283.798 33.6364 282.011 31.763C280.308 29.8895 278.01 28.8677 275.201 28.8677C272.392 28.8677 270.179 29.8044 268.391 31.763C266.604 33.6364 265.752 36.1059 265.752 39.0863C265.752 42.1519 266.604 44.6214 268.391 46.4948C270.179 48.4534 272.392 49.3901 275.201 49.3901Z" fill="#3BEAAB"/>
<path d="M315.719 57.9908C312.57 57.9908 309.761 57.2244 307.292 55.6916C304.824 54.1588 302.866 51.9447 301.419 49.1346C299.972 46.2393 299.291 43.0034 299.291 39.2566C299.291 35.8504 299.972 32.6996 301.419 29.8044C302.866 26.9091 304.824 24.6099 307.463 22.9068C310.101 21.2037 312.995 20.267 316.23 20.267C318.528 20.267 320.656 20.6927 322.614 21.6294C324.572 22.5662 326.104 23.8435 327.296 25.5466V0.340607H337V56.8838H327.722L327.551 52.3705C326.36 54.2439 324.742 55.6064 322.699 56.6283C320.742 57.565 318.358 57.9908 315.719 57.9908ZM318.358 49.3901C321.082 49.3901 323.38 48.4534 325.168 46.4948C326.956 44.6214 327.807 42.1519 327.807 39.0863C327.807 36.1059 326.956 33.6363 325.168 31.7629C323.466 29.8895 321.167 28.8676 318.358 28.8676C315.549 28.8676 313.336 29.8044 311.548 31.7629C309.761 33.6363 308.91 36.1059 308.91 39.0863C308.91 42.1519 309.761 44.6214 311.548 46.4948C313.336 48.4534 315.634 49.3901 318.358 49.3901Z" fill="#3BEAAB"/>
<path d="M36.0068 25.4615C35.1555 25.4615 34.3043 25.2912 33.6233 24.8654C32.8572 24.4396 32.3465 23.9287 31.8358 23.1623C31.4102 22.3959 31.1548 21.6295 31.1548 20.6928C31.1548 19.8412 31.325 19.0748 31.7506 18.3084C32.1763 17.6272 32.687 17.0311 33.4531 16.6053C34.2192 16.1795 34.9853 15.9241 35.9216 15.9241C36.7729 15.9241 37.6241 16.0944 38.3051 16.5202C39.0712 16.9459 39.5819 17.4569 40.0926 18.2233C40.5183 18.9897 40.7736 19.7561 40.7736 20.6928C40.7736 21.5443 40.6034 22.3959 40.1778 23.0771C39.7522 23.7584 39.2414 24.3545 38.4753 24.7802C37.7092 25.2912 36.9431 25.4615 36.0068 25.4615Z" fill="#3BEAAB"/>
<path d="M60.6083 25.5173C60.044 25.5173 59.4797 25.4033 59.0282 25.1185C58.5203 24.8338 58.1817 24.492 57.8431 23.9794C57.561 23.4668 57.3917 22.9541 57.3917 22.3276C57.3917 21.758 57.5045 21.2454 57.7867 20.7328C58.0689 20.2771 58.4074 19.8784 58.9153 19.5936C59.4232 19.3088 59.9311 19.1379 60.5519 19.1379C61.1162 19.1379 61.6805 19.2519 62.132 19.5366C62.6399 19.8214 62.9785 20.1632 63.3171 20.6758C63.5992 21.1884 63.7685 21.7011 63.7685 22.3276C63.7685 22.8972 63.6556 23.4668 63.3735 23.9224C63.0913 24.3781 62.7527 24.7768 62.2448 25.0616C61.7934 25.4033 61.2291 25.5173 60.6083 25.5173Z" fill="#3BEAAB"/>
<path d="M47.4983 57.9908C42.2207 57.9908 38.1349 56.6283 35.3258 53.9033C32.5168 51.1784 31.0697 47.2612 31.0697 42.1519V29.3786H40.7737V41.9816C40.7737 47.0058 43.072 49.4753 47.5835 49.4753C51.9247 49.4753 54.1379 47.0058 54.1379 41.9816V29.3786H63.8419V42.1519C63.8419 47.2612 62.3948 51.1784 59.5857 53.9033C56.7767 56.6283 52.7759 57.9908 47.4983 57.9908Z" fill="#3BEAAB"/>
</svg>
