<svg width="22" height="17" viewBox="0 0 22 17" fill="none" xmlns="http://www.w3.org/2000/svg">
<path fill-rule="evenodd" clip-rule="evenodd" d="M0 1.5C0 0.671573 0.671573 0 1.5 0H20.5C21.3284 0 22 0.671573 22 1.5C22 2.32843 21.3284 3 20.5 3H1.5C0.671573 3 0 2.32843 0 1.5Z" fill="#3BEAAB"/>
<path fill-rule="evenodd" clip-rule="evenodd" d="M0 8.5C0 7.67157 0.671573 7 1.5 7H20.5C21.3284 7 22 7.67157 22 8.5C22 9.32843 21.3284 10 20.5 10H1.5C0.671573 10 0 9.32843 0 8.5Z" fill="#3BEAAB"/>
<path fill-rule="evenodd" clip-rule="evenodd" d="M0 15.5C0 14.6716 0.671573 14 1.5 14H20.5C21.3284 14 22 14.6716 22 15.5C22 16.3284 21.3284 17 20.5 17H1.5C0.671573 17 0 16.3284 0 15.5Z" fill="#3BEAAB"/>
</svg>
