<svg width="145" height="185" viewBox="0 0 145 185" fill="none" xmlns="http://www.w3.org/2000/svg">
<path d="M21.4675 41.9433C17.7013 41.9433 13.9351 41.1943 10.9221 39.3218C7.53249 37.4494 4.89613 35.2024 3.01301 31.832C1.12989 28.836 0.376648 25.0911 0.376648 20.9716C0.376648 17.2267 1.12989 13.8563 3.01301 10.4858C4.89613 7.48987 7.15587 4.86842 10.5455 2.99595C13.9351 1.12348 17.3247 0 21.4675 0C25.2338 0 29 0.748987 32.013 2.62146C35.4026 4.49392 37.6623 6.74089 39.9221 10.1113C41.8052 13.4818 42.9351 16.8522 42.9351 20.9716C42.9351 24.7166 42.1818 28.4615 40.2987 31.4575C38.4156 34.4534 36.1558 37.0749 32.7662 38.9473C29.3766 40.8198 25.6104 41.9433 21.4675 41.9433Z" fill="#3BEAAB"/>
<path d="M130.5 40.4687C127.956 40.4687 125.412 39.9526 123.377 38.6621C121.088 37.3716 119.561 35.8231 118.035 33.5003C116.763 31.1774 116 28.8546 116 26.0156C116 23.4347 116.509 21.1119 117.781 18.7891C119.053 16.7243 120.579 14.9177 122.868 13.6272C125.158 12.3368 127.702 11.5625 130.5 11.5625C133.044 11.5625 135.588 12.0787 137.623 13.3691C139.912 14.6596 141.439 16.2081 142.965 18.531C144.237 20.8538 145 23.1766 145 26.0156C145 28.5965 144.491 31.1774 143.219 33.2422C141.947 35.3069 140.421 37.1135 138.131 38.404C135.842 39.6945 133.298 40.4687 130.5 40.4687Z" fill="#3BEAAB"/>
<path d="M72.6883 185C49.3376 185 31.2597 179.008 18.8312 167.024C6.40259 155.04 0 137.814 0 115.344V59.1701H42.935V114.595C42.935 136.69 53.1039 147.551 73.0649 147.551C92.2727 147.551 102.065 136.69 102.065 114.595V59.1701H145V115.344C145 137.814 138.597 155.04 126.169 167.024C113.74 179.008 95.6623 185 72.6883 185Z" fill="#3BEAAB"/>
</svg>
